<svg xmlns="http://www.w3.org/2000/svg" viewBox="0 0 50 50" width="100" height="100">
  <path d="M20.094 0a.999.999 0 0 0-.875.844l-.969 5.968c-1.168.34-2.293.774-3.344 1.344L10 4.656a1 1 0 0 0-1.281.094L4.813 8.656a1 1 0 0 0-.094 1.281l3.437 4.938A16.901 16.901 0 0 0 6.75 18.25l-5.906.969a.998.998 0 0 0-.844 1v5.5c.008.476.348.879.813.968L6.78 27.75c.348 1.176.797 2.29 1.375 3.344L4.656 36a1 1 0 0 0 .094 1.281l3.906 3.907a1 1 0 0 0 1.281.093l4.907-3.468a16.898 16.898 0 0 0 3.375 1.374l1 5.97a.998.998 0 0 0 1 .843h5.5a.98.98 0 0 0 .281-.063V49c0 .55.45 1 1 1h22c.55 0 1-.45 1-1V33 31.844A2.86 2.86 0 0 0 47.156 29h-8.375c.153-.414.309-.848.438-1.25l5.937-1.063A.996.996 0 0 0 46 25.72v-5.5a.998.998 0 0 0-.844-1l-6-.969a17.261 17.261 0 0 0-1.375-3.313l3.5-5a1 1 0 0 0-.093-1.28L37.28 4.75A1 1 0 0 0 36 4.656l-4.906 3.532a16.762 16.762 0 0 0-3.344-1.376l-1.063-6A1.002 1.002 0 0 0 25.72 0h-5.5a.668.668 0 0 0-.125 0zm.968 2h3.813l1 5.688a1 1 0 0 0 .719.78c1.46.364 2.84.962 4.093 1.72.34.207.77.195 1.094-.032l4.688-3.375 2.687 2.688-3.312 4.75a.995.995 0 0 0-.063 1.094 14.857 14.857 0 0 1 1.688 4.062c.093.39.414.688.812.75l5.719.938v3.812l-5.719 1a.994.994 0 0 0-.812.75c-.117.477-.5 1.535-.813 2.375h-7.875a8.311 8.311 0 0 0 2.563-6c0-4.59-3.754-8.344-8.344-8.344S14.656 18.41 14.656 23 18.41 31.344 23 31.344a8.34 8.34 0 0 0 3.25-.657c-.16.356-.25.743-.25 1.157v.968a.668.668 0 0 0 0 .126v5.53L24.875 44h-3.813l-.937-5.656a.994.994 0 0 0-.75-.813 14.94 14.94 0 0 1-4.125-1.687 1.001 1.001 0 0 0-1.094.031L9.47 39.156 6.78 36.47l3.313-4.657c.226-.324.238-.753.031-1.093a14.627 14.627 0 0 1-1.688-4.094.994.994 0 0 0-.812-.75l-5.625-1v-3.813l5.625-.937a.994.994 0 0 0 .813-.75 15.03 15.03 0 0 1 1.718-4.125c.207-.34.196-.77-.031-1.094L6.812 9.47l2.72-2.688 4.655 3.313c.32.238.75.261 1.094.062a14.764 14.764 0 0 1 4.094-1.687.994.994 0 0 0 .75-.813zM23 16.656A6.338 6.338 0 0 1 29.344 23 6.338 6.338 0 0 1 23 29.344 6.338 6.338 0 0 1 16.656 23 6.338 6.338 0 0 1 23 16.656zM28.844 31h8.218c.192.059.403.059.594 0h9.5c.48 0 .844.363.844.844V32H28v-.156c0-.48.363-.844.844-.844zM28 34h20v14H28v-9.406a.986.986 0 0 0 0-.5zm9 .594l-.719.687-3.343 3.344-1.282-1.094-.75-.656-1.312 1.531.75.625 2 1.719.718.625 4.657-4.656.687-.719zm0 5l-.719.687-3.343 3.344-1.282-1.094-.75-.656-1.312 1.531.75.625 2 1.719.718.625 4.657-4.656.687-.719z"/>
</svg>
